<?xml version="1.0" standalone="no"?>
<!DOCTYPE svg PUBLIC "-//W3C//DTD SVG 20010904//EN"
 "http://www.w3.org/TR/2001/REC-SVG-20010904/DTD/svg10.dtd">
<svg version="1.0" xmlns="http://www.w3.org/2000/svg"
 width="800.000000pt" height="800.000000pt" viewBox="0 0 800.000000 800.000000"
 preserveAspectRatio="xMidYMid meet">
<metadata>
Created by potrace 1.11, written by Peter Selinger 2001-2013
</metadata>
<g transform="translate(0.000000,800.000000) scale(0.100000,-0.100000)"
fill="#000000" stroke="none">
<path d="M0 4000 l0 -4000 4000 0 4000 0 0 4000 0 4000 -4000 0 -4000 0 0
-4000z m3934 1763 c22 -108 46 -336 66 -613 5 -74 14 -187 20 -250 6 -63 15
-191 20 -285 6 -93 16 -249 24 -345 29 -363 39 -527 32 -554 -6 -26 -9 -27
-59 -24 l-52 3 -7 45 c-4 24 -12 130 -18 235 -6 104 -12 228 -15 275 -3 47
-10 184 -15 305 -11 228 -26 353 -41 338 -11 -11 -24 -116 -39 -308 -6 -82
-16 -183 -21 -224 -21 -165 -74 -252 -184 -303 -48 -22 -58 -23 -269 -20 -140
2 -231 -1 -252 -8 -56 -19 -95 -76 -138 -204 -21 -64 -44 -120 -51 -126 -7 -5
-53 -12 -103 -13 -90 -4 -91 -4 -100 22 -22 61 -44 190 -90 519 -9 67 -21 123
-26 123 -6 0 -23 -58 -38 -128 -36 -162 -66 -219 -133 -252 l-48 -24 -386 12
c-212 6 -609 18 -881 26 -476 14 -816 29 -890 40 -72 11 -92 17 -83 25 22 22
317 31 1162 35 797 3 904 5 971 20 150 34 167 63 210 355 61 410 79 493 114
514 13 9 20 7 30 -7 33 -44 97 -413 171 -992 10 -71 19 -136 21 -142 8 -30 22
-7 52 91 18 57 46 122 62 144 59 83 179 121 321 102 41 -5 117 -9 169 -10 80
0 101 4 134 23 77 43 77 45 166 677 21 148 30 204 76 485 34 212 76 414 91
438 9 15 22 6 27 -20z m1203 -914 c15 -50 46 -214 68 -364 47 -310 62 -409
100 -690 8 -55 12 -101 10 -104 -8 -8 -83 -8 -96 -1 -19 12 -36 127 -85 574
-16 151 -25 182 -42 150 -5 -10 -13 -35 -17 -54 -42 -211 -71 -277 -138 -312
-37 -20 -62 -23 -219 -28 -236 -7 -237 -9 -284 -225 -21 -98 -34 -113 -106
-110 l-53 1 2 75 c3 92 37 238 71 302 43 81 52 84 252 89 154 4 180 7 216 26
90 46 119 105 180 367 62 270 92 361 117 352 6 -2 17 -23 24 -48z m963 -699
c173 -5 556 -14 850 -20 552 -11 861 -23 880 -35 28 -17 -18 -27 -176 -40
-259 -21 -686 -34 -1403 -45 -437 -6 -658 -13 -666 -20 -19 -16 -44 -72 -81
-179 -42 -122 -49 -130 -110 -124 -27 3 -50 6 -51 7 -4 3 45 218 60 267 30 92
88 174 137 192 23 8 209 7 560 -3z"/>
</g>
</svg>
